<svg width="17" height="16" viewBox="0 0 17 16" fill="none" xmlns="http://www.w3.org/2000/svg">
<path d="M9.46939 14.4622L13.2644 15.9095C14.3605 16.3275 15.4206 15.2217 14.9646 14.1361L13.9361 11.688C13.7307 11.1989 13.8319 10.634 14.1943 10.2478L16.6324 7.64984C17.3325 6.90381 16.9729 5.67601 15.9823 5.43027L12.4685 4.55869C12.0722 4.4604 11.7426 4.18492 11.5741 3.81116L10.2104 0.786569C9.73761 -0.26219 8.25587 -0.26219 7.78316 0.786569L6.41951 3.81116C6.25105 4.18492 5.92142 4.4604 5.52509 4.55869L2.01129 5.43027C1.0207 5.67601 0.661124 6.90381 1.36121 7.64984L3.79926 10.2478C4.16168 10.634 4.26293 11.1989 4.05746 11.688L3.02899 14.1361C2.573 15.2217 3.63315 16.3276 4.7292 15.9095L8.52422 14.4622C8.82859 14.3461 9.16489 14.3461 9.46939 14.4622Z" fill="url(#paint0_radial_1_4077)"/>
<defs>
<radialGradient id="paint0_radial_1_4077" cx="0" cy="0" r="1" gradientUnits="userSpaceOnUse" gradientTransform="translate(6.43276 2.12056) scale(11.1222 19.4644)">
<stop offset="0.47" stop-color="#FFBF00"/>
<stop offset="1" stop-color="#FAA301"/>
</radialGradient>
</defs>
</svg>
