<svg width="81" height="36" viewBox="0 0 81 36" fill="none" xmlns="http://www.w3.org/2000/svg">
<path d="M23.1891 12.3688C22.5601 11.6519 21.4231 11.3446 19.9687 11.3446H15.7473C15.6033 11.3445 15.464 11.3958 15.3545 11.4893C15.245 11.5828 15.1724 11.7123 15.1499 11.8545L13.393 23.0028C13.3848 23.0545 13.388 23.1074 13.4022 23.1578C13.4165 23.2082 13.4415 23.2549 13.4755 23.2946C13.5096 23.3344 13.5518 23.3664 13.5994 23.3882C13.6469 23.4101 13.6987 23.4214 13.751 23.4214H16.3571L17.0116 19.2699L16.9914 19.3999C17.0135 19.258 17.0856 19.1286 17.1946 19.0352C17.3037 18.9417 17.4425 18.8902 17.5861 18.8901H18.8246C21.2574 18.8901 23.1624 17.9019 23.7188 15.0433C23.7354 14.9588 23.7497 14.8765 23.7621 14.7961C23.9274 13.7395 23.7609 13.0204 23.1894 12.3692" fill="#003087"/>
<path d="M55.0938 17.6736C54.9345 18.7196 54.1357 18.7196 53.3632 18.7196H52.9236L53.232 16.7666C53.2508 16.6486 53.3523 16.5618 53.4718 16.5618H53.6735C54.1996 16.5618 54.6963 16.5618 54.9525 16.8613C55.1054 17.0405 55.1517 17.3065 55.0938 17.6736ZM54.7575 14.9443H51.8433C51.7468 14.9443 51.6535 14.9788 51.5801 15.0414C51.5067 15.1041 51.458 15.1909 51.4428 15.2862L50.2653 22.7584C50.2598 22.793 50.262 22.8284 50.2715 22.8622C50.2811 22.8959 50.2978 22.9272 50.3206 22.9538C50.3434 22.9805 50.3716 23.0019 50.4034 23.0166C50.4353 23.0313 50.4699 23.039 50.505 23.0391H52.0004C52.1398 23.0391 52.2585 22.9376 52.2803 22.8001L52.6147 20.681C52.6455 20.4845 52.8154 20.339 53.0145 20.339H53.9365C55.8565 20.339 56.9642 19.4106 57.2535 17.5691C57.3839 16.7643 57.2588 16.1316 56.8819 15.6886C56.4675 15.2017 55.7329 14.9439 54.7579 14.9439" fill="#009CDE"/>
<path d="M34.3079 17.6745C34.1486 18.7205 33.3498 18.7205 32.5769 18.7205H32.1373L32.4458 16.7674C32.4646 16.6495 32.566 16.5627 32.6855 16.5627H32.8873C33.4133 16.5627 33.91 16.5627 34.1663 16.8621C34.3196 17.0414 34.3658 17.3074 34.3079 17.6745ZM33.9716 14.9451H31.0574C30.8583 14.9451 30.6885 15.0902 30.6573 15.2871L29.4794 22.7592C29.4739 22.7939 29.476 22.8293 29.4855 22.8631C29.495 22.8969 29.5118 22.9282 29.5345 22.9548C29.5573 22.9815 29.5856 23.0029 29.6175 23.0176C29.6493 23.0323 29.684 23.0399 29.7191 23.0399H31.1108C31.3099 23.0399 31.4794 22.8949 31.5106 22.698L31.8288 20.6822C31.8596 20.4853 32.0295 20.3403 32.2286 20.3403H33.1507C35.0706 20.3403 36.1783 19.4115 36.4676 17.57C36.598 16.7652 36.4729 16.1325 36.096 15.6895C35.6816 15.2025 34.947 14.9448 33.972 14.9448L33.9716 14.9451ZM40.7374 20.3572C40.6022 21.1545 39.9698 21.6899 39.1624 21.6899C38.7577 21.6899 38.4335 21.5595 38.2253 21.3131C38.0186 21.0688 37.9412 20.7205 38.0066 20.3331C38.1321 19.5426 38.7754 18.9903 39.5704 18.9903C39.9668 18.9903 40.2881 19.1218 40.5007 19.3705C40.7145 19.6211 40.7987 19.9713 40.7374 20.3572ZM42.6822 17.6406H41.2868C41.2288 17.6406 41.1726 17.6613 41.1285 17.6989C41.0844 17.7366 41.0553 17.7889 41.0463 17.8462L40.9854 18.2362L40.8877 18.0949C40.5857 17.6564 39.912 17.5095 39.2394 17.5095C37.6978 17.5095 36.3808 18.678 36.1246 20.3162C35.9912 21.1342 36.1806 21.9154 36.6442 22.4605C37.0699 22.9614 37.6775 23.1699 38.4015 23.1699C39.6444 23.1699 40.3335 22.3719 40.3335 22.3719L40.2712 22.7596C40.2657 22.7943 40.2678 22.8298 40.2773 22.8636C40.2869 22.8973 40.3036 22.9287 40.3265 22.9554C40.3493 22.982 40.3776 23.0034 40.4095 23.0181C40.4414 23.0328 40.4761 23.0403 40.5113 23.0403H41.7677C41.9668 23.0403 42.1367 22.8956 42.1679 22.6984L42.9223 17.9217C42.9278 17.887 42.9256 17.8515 42.916 17.8177C42.9064 17.7839 42.8896 17.7526 42.8668 17.726C42.8439 17.6993 42.8155 17.6779 42.7836 17.6632C42.7517 17.6485 42.717 17.641 42.6819 17.641" fill="white"/>
<path d="M61.5239 20.3572C61.3887 21.1545 60.7563 21.6899 59.9489 21.6899C59.5442 21.6899 59.2199 21.5595 59.0118 21.3131C58.8051 21.0688 58.7277 20.7205 58.7931 20.3331C58.9186 19.5426 59.5615 18.9903 60.3569 18.9903C60.7533 18.9903 61.0745 19.1218 61.2872 19.3705C61.501 19.6211 61.5852 19.9713 61.5239 20.3572ZM63.4687 17.6406H62.0732C62.0152 17.6406 61.9591 17.6613 61.915 17.6989C61.8709 17.7366 61.8417 17.7889 61.8328 17.8462L61.7719 18.2362L61.6742 18.0949C61.3721 17.6564 60.6984 17.5095 60.0259 17.5095C58.4846 17.5095 57.1677 18.678 56.9111 20.3162C56.7777 21.1342 56.9674 21.9154 57.4311 22.4605C57.8568 22.9614 58.4643 23.1699 59.1884 23.1699C60.4317 23.1699 61.1208 22.3719 61.1208 22.3719L61.0584 22.7596C61.0528 22.7943 61.0548 22.8297 61.0642 22.8635C61.0737 22.8973 61.0904 22.9286 61.1131 22.9553C61.1359 22.982 61.1642 23.0035 61.1961 23.0181C61.228 23.0328 61.2626 23.0404 61.2977 23.0403H62.5538C62.7529 23.0403 62.9228 22.8956 62.9543 22.6984L63.7088 17.9217C63.7142 17.887 63.7121 17.8515 63.7025 17.8177C63.6929 17.7839 63.6761 17.7526 63.6532 17.726C63.6304 17.6993 63.602 17.6779 63.5701 17.6632C63.5382 17.6485 63.5035 17.641 63.4683 17.641" fill="#009CDE"/>
<path d="M50.1154 17.6405H48.7124C48.5782 17.6405 48.4531 17.707 48.378 17.8182L46.4429 20.6678L45.6227 17.9295C45.5977 17.8459 45.5464 17.7727 45.4765 17.7206C45.4066 17.6685 45.3218 17.6403 45.2346 17.6401H43.856C43.8174 17.6402 43.7793 17.6494 43.7449 17.6671C43.7105 17.6848 43.6809 17.7104 43.6584 17.7419C43.6359 17.7733 43.6212 17.8097 43.6156 17.8479C43.61 17.8861 43.6136 17.9252 43.6261 17.9618L45.1703 22.4954L43.7178 24.545C43.6921 24.5814 43.6769 24.6241 43.6739 24.6685C43.6708 24.7129 43.68 24.7573 43.7005 24.7969C43.721 24.8364 43.7519 24.8696 43.7899 24.8927C43.828 24.9159 43.8716 24.9282 43.9161 24.9282H45.3176C45.4499 24.9282 45.5742 24.8632 45.6501 24.7543L50.3145 18.0219C50.3398 17.9855 50.3547 17.9429 50.3575 17.8986C50.3603 17.8544 50.3509 17.8102 50.3304 17.7709C50.3099 17.7316 50.279 17.6987 50.2411 17.6757C50.2032 17.6527 50.1597 17.6405 50.1154 17.6405Z" fill="white"/>
<path d="M65.1126 15.1494L63.9163 22.7584C63.9108 22.7931 63.913 22.8285 63.9226 22.8623C63.9321 22.896 63.9489 22.9273 63.9717 22.954C63.9945 22.9807 64.0228 23.0021 64.0547 23.0168C64.0866 23.0314 64.1213 23.0391 64.1564 23.0391H65.3591C65.5582 23.0391 65.728 22.894 65.7592 22.6971L66.9387 15.2246C66.9441 15.1899 66.942 15.1544 66.9325 15.1206C66.9229 15.0869 66.9062 15.0555 66.8834 15.0288C66.8605 15.0022 66.8322 14.9808 66.8003 14.9661C66.7684 14.9514 66.7337 14.9439 66.6986 14.9439H65.3527C65.2947 14.9438 65.2387 14.9644 65.1946 15.002C65.1506 15.0396 65.1215 15.0918 65.1126 15.1491" fill="#009CDE"/>
<path d="M23.1891 12.3688C22.5601 11.6519 21.4231 11.3446 19.9687 11.3446H15.7473C15.6033 11.3445 15.464 11.3958 15.3545 11.4893C15.245 11.5828 15.1724 11.7123 15.1499 11.8545L13.393 23.0028C13.3848 23.0545 13.388 23.1074 13.4022 23.1578C13.4165 23.2082 13.4415 23.2549 13.4755 23.2946C13.5096 23.3344 13.5518 23.3664 13.5994 23.3882C13.6469 23.4101 13.6987 23.4214 13.751 23.4214H16.3571L17.0116 19.2699L16.9914 19.3999C17.0135 19.258 17.0856 19.1286 17.1946 19.0352C17.3037 18.9417 17.4425 18.8902 17.5861 18.8901H18.8246C21.2574 18.8901 23.1624 17.9019 23.7188 15.0433C23.7354 14.9588 23.7497 14.8765 23.7621 14.7961C23.9274 13.7395 23.7609 13.0204 23.1894 12.3692" fill="#003087"/>
<path d="M17.7151 14.8103C17.7348 14.6861 17.7982 14.5729 17.8939 14.4912C17.9895 14.4095 18.1112 14.3645 18.237 14.3644H21.5464C21.9383 14.3644 22.3039 14.3899 22.6379 14.4433C22.8206 14.4726 23.0012 14.513 23.179 14.5642C23.3808 14.621 23.5762 14.6988 23.7617 14.7964C23.9278 13.7395 23.761 13.0207 23.1895 12.3692C22.5601 11.6527 21.4236 11.3453 19.9691 11.3453H15.7474C15.6035 11.3454 15.4644 11.3968 15.3551 11.4903C15.2457 11.5837 15.1732 11.7131 15.1507 11.8552L13.393 23.0024C13.3848 23.0542 13.3879 23.107 13.4021 23.1574C13.4163 23.2078 13.4413 23.2546 13.4753 23.2944C13.5093 23.3342 13.5515 23.3662 13.5991 23.3881C13.6466 23.41 13.6984 23.4214 13.7507 23.4214H16.3572L17.0117 19.2695L17.7151 14.8103Z" fill="white"/>
<path d="M23.762 14.7958C23.7491 14.8785 23.7347 14.9609 23.7188 15.0431C23.1623 17.9013 21.2574 18.8898 18.8245 18.8898H17.5857C17.4421 18.8899 17.3033 18.9414 17.1942 19.0349C17.0852 19.1284 17.0133 19.2578 16.9913 19.3997L16.3571 23.4208L16.1767 24.5615C16.1695 24.6068 16.1723 24.6531 16.1847 24.6972C16.1972 24.7414 16.219 24.7823 16.2488 24.8171C16.2786 24.852 16.3156 24.88 16.3573 24.8991C16.3989 24.9183 16.4442 24.9282 16.4901 24.9282H18.687C18.947 24.9282 19.1679 24.7389 19.2089 24.4822L19.2303 24.3703L19.6443 21.7461L19.6706 21.6011C19.6903 21.4768 19.7538 21.3635 19.8495 21.2818C19.9452 21.2 20.067 21.1551 20.1929 21.1551H20.5217C22.6498 21.1551 24.3162 20.2909 24.8032 17.7901C25.006 16.7455 24.9008 15.8727 24.3635 15.2599C24.1929 15.0699 23.9891 14.9126 23.762 14.7958Z" fill="#009CDE"/>
<path d="M23.1801 14.5637C23.0952 14.5386 23.0076 14.516 22.9174 14.4961C22.8273 14.4762 22.7341 14.4585 22.6386 14.4435C22.3042 14.389 21.939 14.3635 21.5468 14.3635H18.2377C18.1117 14.3633 17.9899 14.4082 17.8942 14.4901C17.7984 14.572 17.7352 14.6854 17.7158 14.8098L17.0124 19.2698L16.9921 19.3994C17.0141 19.2575 17.0861 19.1281 17.1951 19.0346C17.3041 18.9411 17.4429 18.8896 17.5865 18.8895H18.8253C21.2582 18.8895 23.1632 17.9014 23.7196 15.0428C23.7362 14.9583 23.7501 14.8763 23.7628 14.7956C23.6159 14.7187 23.4628 14.6541 23.3052 14.6024C23.2642 14.5889 23.2225 14.5761 23.1801 14.5634" fill="#456ABD"/>
</svg>
