<svg width="81" height="36" viewBox="0 0 81 36" fill="none" xmlns="http://www.w3.org/2000/svg">
<path d="M60.5007 17.384C60.2135 17.5842 59.7966 17.6832 59.2262 17.6832H58.9787H58.6606L59.0943 15.3405H59.3142H59.5103C59.9838 15.3405 60.3296 15.4167 60.5679 15.5713C60.7541 15.6926 60.9749 15.9327 60.9749 16.3884C60.9749 16.9374 60.7181 17.2327 60.5007 17.384ZM26.7565 20.3241H22.3788L22.6618 18.7929H25.4076L25.7196 17.0681H23.0002L23.263 15.5526H27.633L26.7565 20.3241ZM62.859 14.2382C62.2153 13.797 61.2413 13.5747 59.9644 13.5747H56.62L55.3768 20.3244H50.9958L51.2767 18.7931H53.9161L54.2299 17.0731L51.5921 17.0778L51.8746 15.5531H54.5927L54.9543 13.5749H49.4329L48.2529 19.9781H46.2283L47.4169 13.5749H44.5304L43.3504 19.9781H41.3763L42.566 13.5749H39.6825L38.4361 20.3246H34.024L34.302 18.7933H36.9533L37.2656 17.0832L34.6183 17.0808L34.8994 15.5531H37.6477L38.0076 13.5749H20.806L19.8269 18.9238L17.8763 13.5747H14.8824L13.2711 22.3036H16.1301L17.1052 16.8077L18.9983 22.3036H29.2457L30.4913 15.5528H32.0948L30.8485 22.3036H57.8124L58.5934 18.0419L59.8593 22.3036H62.7199L61.4093 18.8215L61.7085 18.7568C62.3677 18.6156 62.8838 18.3115 63.2418 17.8559C63.6005 17.3959 63.7827 16.8055 63.7827 16.0962C63.7829 15.2701 63.4812 14.6628 62.859 14.2382Z" fill="#8DC640"/>
<path d="M65.2164 21.2718L65.606 21.2515C65.6885 21.2477 65.7537 21.2353 65.7992 21.2157C65.8447 21.1965 65.8792 21.1672 65.9013 21.1278C65.9234 21.0885 65.934 21.0473 65.9311 21.0031C65.9277 20.9377 65.9013 20.8856 65.8524 20.8457C65.8033 20.8063 65.7275 20.79 65.6258 20.7948L65.1923 20.8169L65.2164 21.2718ZM65.0723 22.0469L65.0022 20.6739L65.6114 20.6433C65.7332 20.6369 65.8263 20.6446 65.8914 20.6662C65.9568 20.6874 66.0093 20.7285 66.0508 20.7891C66.0921 20.8495 66.1151 20.9167 66.118 20.9925C66.1236 21.0899 66.0959 21.1733 66.0364 21.2436C65.9769 21.3133 65.882 21.3609 65.7514 21.3857C65.8003 21.4069 65.8384 21.4272 65.8641 21.4481C65.9198 21.4941 65.973 21.5527 66.024 21.6235L66.2801 21.9852L66.0537 21.9967L65.8576 21.7202C65.8003 21.6402 65.7534 21.5793 65.7169 21.5374C65.6806 21.4955 65.6479 21.4668 65.62 21.4506C65.5927 21.4344 65.5634 21.4238 65.5357 21.4179C65.5145 21.4148 65.4809 21.4143 65.434 21.4168L65.2243 21.4274L65.2545 22.0377L65.0723 22.0469Z" fill="#8DC640"/>
<path d="M64.4784 21.3821C64.4644 21.0981 64.5609 20.8257 64.7514 20.6152C64.9419 20.4041 65.2039 20.2795 65.4884 20.265C66.0741 20.2346 66.5753 20.6871 66.6055 21.2735C66.6064 21.2915 66.6076 21.3107 66.6076 21.328C66.6076 21.8908 66.1643 22.3622 65.5964 22.392C65.0098 22.4217 64.509 21.9688 64.4784 21.3821ZM65.4762 20.0461C65.1347 20.0644 64.819 20.2136 64.5897 20.4682C64.3602 20.7225 64.243 21.0516 64.2606 21.3941C64.2976 22.1002 64.9015 22.6451 65.6081 22.6098C66.3138 22.5732 66.8598 21.9688 66.8233 21.2627V21.262C66.7877 20.5556 66.1837 20.0103 65.4762 20.0461Z" fill="#8DC640"/>
</svg>
