<svg width="81" height="36" viewBox="0 0 81 36" fill="none" xmlns="http://www.w3.org/2000/svg">
<g clip-path="url(#clip0_109_137)">
<path d="M59.5977 32.6577V32.7429H59.6752C59.6898 32.7431 59.7041 32.7394 59.7168 32.732C59.7218 32.7283 59.7259 32.7234 59.7286 32.7178C59.7314 32.7121 59.7327 32.7058 59.7324 32.6994C59.7326 32.6932 59.7314 32.687 59.7286 32.6815C59.7259 32.6759 59.7218 32.6712 59.7168 32.6677C59.7043 32.66 59.6898 32.6562 59.6752 32.6568H59.5977V32.6577ZM59.6761 32.5974C59.7093 32.5953 59.7422 32.6051 59.7692 32.6251C59.78 32.6342 59.7886 32.6457 59.7942 32.6588C59.7999 32.6719 59.8025 32.6862 59.8018 32.7005C59.8023 32.7128 59.8002 32.7251 59.7957 32.7365C59.7912 32.7479 59.7843 32.7582 59.7756 32.7667C59.7548 32.7853 59.7287 32.7964 59.7012 32.7985L59.8051 32.9198H59.7251L59.6295 32.7993H59.5985V32.9198H59.5316V32.5976H59.6771L59.6761 32.5974ZM59.6553 33.031C59.6904 33.0313 59.7252 33.0241 59.7573 33.0097C59.7883 32.996 59.8166 32.9764 59.8405 32.952C59.8644 32.9276 59.8835 32.8987 59.8968 32.8668C59.9241 32.7993 59.9241 32.7235 59.8968 32.656C59.8833 32.6243 59.8642 32.5954 59.8405 32.5708C59.8166 32.5464 59.7883 32.5268 59.7573 32.5131C59.725 32.4995 59.6903 32.4927 59.6553 32.4931C59.6197 32.4927 59.5844 32.4995 59.5514 32.5131C59.5196 32.5265 59.4908 32.5461 59.4663 32.5708C59.4296 32.6094 59.4047 32.6583 59.3948 32.7113C59.385 32.7643 59.3905 32.8191 59.4108 32.8689C59.4235 32.9009 59.4424 32.9299 59.4663 32.9541C59.4908 32.9788 59.5196 32.9984 59.5514 33.0118C59.5842 33.0262 59.6196 33.0335 59.6553 33.0331V33.031ZM59.6553 32.4156C59.7466 32.4155 59.8343 32.4522 59.8995 32.5178C59.9309 32.5493 59.9559 32.5868 59.9731 32.6283C59.9908 32.6709 60 32.7167 60 32.763C60 32.8093 59.9908 32.8551 59.9731 32.8977C59.9555 32.9389 59.9306 32.9764 59.8995 33.0082C59.8676 33.0395 59.8305 33.0648 59.79 33.0827C59.7474 33.1013 59.7015 33.1107 59.6553 33.1104C59.6085 33.1108 59.5621 33.1014 59.5189 33.0827C59.4779 33.0652 59.4405 33.0399 59.4086 33.0082C59.3775 32.9752 59.3529 32.9365 59.336 32.8941C59.3183 32.8515 59.3091 32.8057 59.3091 32.7594C59.3091 32.7131 59.3183 32.6673 59.336 32.6247C59.3532 32.5832 59.3782 32.5457 59.4096 32.5142C59.4411 32.4819 59.4786 32.4565 59.52 32.4396C59.5631 32.421 59.6095 32.4116 59.6563 32.4119L59.6553 32.4156ZM27.8298 31.1713C27.8298 30.5569 28.2227 30.0522 28.8647 30.0522C29.4783 30.0522 29.8923 30.5352 29.8923 31.1713C29.8923 31.8074 29.4783 32.2903 28.8647 32.2903C28.2227 32.2903 27.8298 31.7856 27.8298 31.1713ZM30.5917 31.1713V29.4229H29.8499V29.8488C29.6146 29.5341 29.2577 29.3367 28.7724 29.3367C27.8163 29.3367 27.066 30.105 27.066 31.1721C27.066 32.2392 27.8159 33.0076 28.7724 33.0076C29.2575 33.0076 29.6146 32.81 29.8499 32.4954V32.9198H30.5909V31.1713H30.5917ZM55.6563 31.1713C55.6563 30.5569 56.0491 30.0522 56.6914 30.0522C57.3056 30.0522 57.719 30.5352 57.719 31.1713C57.719 31.8074 57.3056 32.2903 56.6914 32.2903C56.0493 32.2903 55.6563 31.7856 55.6563 31.1713ZM58.419 31.1713V28.0195H57.6766V29.8488C57.4413 29.5341 57.0844 29.3367 56.5991 29.3367C55.643 29.3367 54.8927 30.105 54.8927 31.1721C54.8927 32.2392 55.6426 33.0076 56.5991 33.0076C57.0844 33.0076 57.4413 32.81 57.6766 32.4954V32.9198H58.419V31.1713ZM39.7985 30.0162C40.2765 30.0162 40.5835 30.3233 40.6619 30.864H38.8918C38.971 30.3593 39.2701 30.0162 39.7987 30.0162H39.7985ZM39.8134 29.3347C38.8137 29.3347 38.1143 30.0801 38.1143 31.1702C38.1143 32.2816 38.8417 33.0057 39.8631 33.0057C40.3769 33.0057 40.8475 32.8743 41.2615 32.5159L40.898 31.9526C40.612 32.1868 40.2478 32.3182 39.9055 32.3182C39.4275 32.3182 38.9922 32.0914 38.8852 31.4622H41.4182C41.4255 31.3676 41.433 31.2722 41.433 31.17C41.4255 30.0803 40.7679 29.3345 39.813 29.3345L39.8134 29.3347ZM48.7691 31.17C48.7691 30.5556 49.1619 30.0509 49.804 30.0509C50.4175 30.0509 50.8316 30.5339 50.8316 31.17C50.8316 31.8061 50.4175 32.2891 49.804 32.2891C49.1619 32.2891 48.7689 31.7844 48.7689 31.17H48.7691ZM51.5308 31.17V29.4229H50.7894V29.8488C50.5533 29.5341 50.1972 29.3367 49.7119 29.3367C48.7558 29.3367 48.0055 30.105 48.0055 31.1721C48.0055 32.2392 48.7554 33.0076 49.7119 33.0076C50.1972 33.0076 50.5533 32.81 50.7894 32.4954V32.9198H51.531V31.1713L51.5308 31.17ZM44.58 31.17C44.58 32.2303 45.3004 33.0054 46.3999 33.0054C46.9137 33.0054 47.256 32.8883 47.6262 32.5887L47.2699 31.9743C46.9914 32.1794 46.699 32.2891 46.3762 32.2891C45.784 32.2816 45.3486 31.8429 45.3486 31.17C45.3486 30.497 45.784 30.0586 46.3762 30.0509C46.6981 30.0509 46.9906 30.1606 47.2699 30.3657L47.6262 29.7513C47.2554 29.4517 46.913 29.3345 46.3999 29.3345C45.3004 29.3345 44.58 30.1095 44.58 31.17ZM54.143 29.3345C53.715 29.3345 53.4363 29.5396 53.2436 29.8467V29.4229H52.5085V32.9179H53.2511V30.9587C53.2511 30.3803 53.4937 30.059 53.9786 30.059C54.1374 30.0567 54.295 30.0865 54.4425 30.147L54.6711 29.4306C54.5069 29.3643 54.2928 29.3352 54.1426 29.3352L54.143 29.3345ZM34.2591 29.7008C33.9023 29.4597 33.4105 29.3352 32.868 29.3352C32.0038 29.3352 31.4474 29.7596 31.4474 30.454C31.4474 31.0239 31.8616 31.3755 32.6244 31.4852L32.9749 31.5363C33.3816 31.5948 33.5737 31.7045 33.5737 31.9019C33.5737 32.1722 33.3035 32.3263 32.7961 32.3263C32.2823 32.3263 31.9115 32.1581 31.6615 31.9607L31.3129 32.5533C31.7197 32.8604 32.2335 33.0069 32.7899 33.0069C33.7751 33.0069 34.346 32.5316 34.346 31.8661C34.346 31.2518 33.8967 30.9304 33.1542 30.8207L32.8046 30.7688C32.4835 30.7262 32.2262 30.66 32.2262 30.4257C32.2262 30.1702 32.4688 30.0164 32.8757 30.0164C33.3112 30.0164 33.7327 30.1846 33.9393 30.316L34.2604 29.7017L34.2591 29.7008ZM43.8307 29.3358C43.4027 29.3358 43.124 29.5409 42.9322 29.848V29.4229H42.197V32.9179H42.9388V30.9587C42.9388 30.3803 43.1814 30.059 43.6663 30.059C43.8251 30.0567 43.9827 30.0865 44.1302 30.147L44.3588 29.4306C44.1946 29.3643 43.9805 29.3352 43.8303 29.3352L43.8307 29.3358ZM37.5005 29.4229H36.2875V28.3626H35.5376V29.4229H34.8457V30.1176H35.5376V31.712C35.5376 32.5229 35.8448 33.0059 36.7223 33.0059C37.0443 33.0059 37.4151 32.9037 37.6504 32.7356L37.4361 32.0848C37.2147 32.2162 36.9722 32.2825 36.7793 32.2825C36.4085 32.2825 36.2875 32.0482 36.2875 31.6975V30.1182H37.5005V29.4229ZM26.41 32.9188V30.7253C26.41 29.8993 25.8962 29.3435 25.068 29.336C24.6325 29.3286 24.1834 29.4674 23.8689 29.9578C23.6336 29.5703 23.2628 29.336 22.7415 29.336C22.3772 29.336 22.0211 29.4457 21.7424 29.855V29.4229H21V32.9179H21.7482V30.98C21.7482 30.3733 22.0766 30.0509 22.5838 30.0509C23.0764 30.0509 23.3256 30.3799 23.3256 30.9724V32.9175H24.0755V30.9796C24.0755 30.3729 24.4178 30.0505 24.9102 30.0505C25.4167 30.0505 25.6585 30.3795 25.6585 30.9719V32.9171L26.41 32.9188Z" fill="white"/>
<path d="M54.176 20.9075V20.5571H54.0855L53.9808 20.7976L53.8766 20.5571H53.7858V20.9075H53.8501V20.6436L53.948 20.8713H54.0147L54.1126 20.643V20.9075H54.1763H54.176ZM53.6017 20.9075V20.6171H53.7176V20.558H53.4215V20.6171H53.5374V20.9075H53.6011H53.6017Z" fill="#F79410"/>
<path d="M43.8858 22.4106H36.0513V8.21826H43.8859L43.8858 22.4106Z" fill="#FF5F00"/>
<path d="M36.5482 15.3136C36.5482 12.4347 37.8854 9.87016 39.9678 8.21745C38.3916 6.96459 36.442 6.28462 34.4346 6.28761C29.4898 6.28761 25.4814 10.3286 25.4814 15.3136C25.4814 20.2986 29.4898 24.3397 34.4346 24.3397C36.442 24.3427 38.3917 23.6627 39.968 22.4098C37.8857 20.7574 36.5482 18.1927 36.5482 15.3136Z" fill="#EB001B"/>
<path d="M54.4557 15.3141C54.4557 20.2991 50.4473 24.3402 45.5025 24.3402C43.4949 24.3431 41.545 23.6632 39.9684 22.4103C42.0514 20.7576 43.3887 18.1932 43.3887 15.3141C43.3887 12.4351 42.0514 9.87065 39.9684 8.21794C41.545 6.96511 43.4948 6.28516 45.5024 6.2881C50.4472 6.2881 54.4555 10.3291 54.4555 15.3141" fill="#F79E1B"/>
</g>
<defs>
<clipPath id="clip0_109_137">
<rect width="39" height="28" fill="white" transform="translate(21 5.11035)"/>
</clipPath>
</defs>
</svg>
