<svg width="81" height="36" viewBox="0 0 81 36" fill="none" xmlns="http://www.w3.org/2000/svg">
<g clip-path="url(#clip0_109_146)">
<path d="M21.5132 9.76904C15.799 9.76904 11.1748 12.6318 11.1748 16.1856C11.1748 17.6911 12.0111 19.073 13.4286 20.1837C12.7315 19.2705 12.3364 18.2585 12.3364 17.173C12.3364 13.4959 16.8674 10.5096 22.444 10.5096C26.0456 10.5096 29.2058 11.7436 30.995 13.6192C29.3919 11.3485 25.744 9.76904 21.5132 9.76904Z" fill="#8CC23C"/>
<path d="M20.6054 17.9991C21.0258 17.9991 21.3642 17.9055 21.6206 17.7183C21.9179 17.5113 22.0668 17.2107 22.0668 16.8182C22.0668 16.0892 21.8411 15.4141 21.3899 14.7931C20.9388 14.172 20.3592 13.7044 19.6516 13.389C19.1577 13.1724 18.6106 13.0639 18.0057 13.0639C16.7852 13.0639 15.783 13.4828 14.9981 14.3204C14.2133 15.158 13.8229 16.168 13.8229 17.3504C13.8229 18.5428 14.2331 19.5453 15.0537 20.3566C15.8743 21.1679 16.8981 21.5778 18.129 21.5778C18.7852 21.5778 19.4159 21.4791 20.0195 21.2822C20.7373 21.0554 21.2603 20.7256 21.5887 20.2921C21.7733 20.0556 21.8656 19.8192 21.8656 19.5829C21.8656 18.9618 21.5373 18.6517 20.8812 18.6517C20.7374 18.6517 20.3682 18.7824 19.7736 19.0434C19.179 19.3044 18.6711 19.4351 18.2506 19.4351C17.7481 19.4351 17.3223 19.312 16.9737 19.0655C16.6251 18.8191 16.4249 18.4646 16.3738 18.0013L20.6054 17.9991ZM16.9136 15.4033C17.211 15.1423 17.58 15.0116 18.0212 15.0116C18.4521 15.0116 18.8183 15.1448 19.1211 15.4107C19.4239 15.6766 19.5903 16.0168 19.621 16.4307H16.3444C16.4265 16.0071 16.616 15.6645 16.9136 15.4033ZM23.4515 20.3346C24.2103 21.1526 25.2153 21.5614 26.4667 21.5614C27.2152 21.5614 27.8408 21.4431 28.3436 21.2068C29.0409 20.872 29.3897 20.463 29.3897 19.98C29.3897 19.6943 29.2998 19.4504 29.1206 19.2484C28.9414 19.0464 28.7078 18.9455 28.4223 18.9455C28.2273 18.9455 27.9795 19.0049 27.684 19.1228C27.3885 19.2407 27.0633 19.3001 26.7131 19.3001C26.1182 19.3001 25.6568 19.1031 25.3284 18.7089C25.0411 18.3543 24.8975 17.8812 24.8975 17.2901C24.8975 16.7284 25.036 16.2604 25.3131 15.8859C25.6207 15.4719 26.0565 15.2649 26.6206 15.2649C26.9592 15.2631 27.2953 15.3257 27.6129 15.4496C27.9256 15.5729 28.1794 15.6343 28.3743 15.6343C28.6716 15.6343 28.9193 15.5358 29.1126 15.3387C29.2068 15.2466 29.2816 15.1344 29.332 15.0096C29.3823 14.8848 29.4072 14.7502 29.4049 14.6145C29.4049 14.0628 29.0665 13.6489 28.3898 13.373C27.8873 13.176 27.2975 13.0774 26.6206 13.0774C25.3284 13.0774 24.2924 13.4741 23.5132 14.2655C22.7339 15.0568 22.3441 16.0813 22.3441 17.3325C22.3439 18.544 22.7132 19.5445 23.4515 20.3328V20.3346ZM30.6199 20.3494C31.4199 21.187 32.4403 21.6059 33.6813 21.6059C34.9325 21.6059 35.9527 21.1918 36.7426 20.3643C37.5014 19.5564 37.8811 18.5462 37.8811 17.3343C37.8811 16.1126 37.4965 15.0928 36.7273 14.2746C35.9581 13.4565 34.9429 13.0479 33.6815 13.0479C32.4405 13.0479 31.4278 13.4594 30.6433 14.282C29.8588 15.1047 29.4681 16.1223 29.4681 17.3343C29.4679 18.5365 29.8525 19.5417 30.6217 20.3496L30.6199 20.3494ZM32.4197 15.9444C32.7171 15.5209 33.1375 15.309 33.6811 15.309C34.2142 15.309 34.6298 15.5259 34.9272 15.9594C35.1937 16.3338 35.3271 16.7871 35.3271 17.3192C35.3271 17.8711 35.1987 18.3294 34.9425 18.6938C34.645 19.1258 34.2246 19.3442 33.6811 19.3442C33.1477 19.3442 32.7324 19.1276 32.4351 18.6938C32.1683 18.3194 32.0351 17.8612 32.0351 17.3192C32.0351 16.7772 32.1632 16.3192 32.4197 15.9446V15.9444Z" fill="white"/>
<path d="M41.373 12.8409H42.4806C43.6496 12.8409 44.2342 13.3089 44.2342 14.245C44.2342 15.1991 43.6496 15.6788 42.4806 15.6788H41.373V12.8409ZM41.373 19.7507V17.9112H43.0959C44.3059 17.9112 45.2597 17.5911 45.9573 16.9504C46.6549 16.3098 47.0034 15.4084 47.0034 14.2455C47.0034 13.0729 46.6188 12.1615 45.8497 11.5093C45.1214 10.8883 44.1368 10.5781 42.896 10.5781H40.5885C39.9217 10.5781 39.4603 10.7041 39.2038 10.9619C38.9473 11.2197 38.8192 11.664 38.8192 12.3052V19.7446C38.8192 20.9057 39.2446 21.4864 40.0961 21.4864C40.9475 21.4864 41.3728 20.9073 41.3728 19.7493L41.373 19.7507ZM50.1101 15.9892C50.4059 15.5852 50.8091 15.3832 51.3197 15.3832C51.84 15.3832 52.2432 15.5854 52.529 15.9892C52.7739 16.3438 52.8965 16.7825 52.8965 17.3047C52.8965 17.8269 52.7739 18.2705 52.529 18.6368C52.2432 19.0508 51.84 19.2578 51.3197 19.2578C50.7994 19.2578 50.3906 19.0508 50.0947 18.6368C49.8393 18.2724 49.712 17.8289 49.712 17.3047C49.712 16.7926 49.8449 16.3539 50.1101 15.9892ZM54.1886 21.4877C55.009 21.4877 55.4193 20.9055 55.4193 19.7405V14.928C55.4193 13.7732 55.0105 13.1957 54.1886 13.1957C53.6861 13.1957 53.291 13.447 53.004 13.9496C52.5015 13.3782 51.8349 13.0924 51.0041 13.0924C49.8657 13.0924 48.9274 13.5357 48.1887 14.4245C47.491 15.2522 47.1426 16.2246 47.1426 17.3364C47.1426 18.4399 47.4757 19.4008 48.1424 20.2166C48.8705 21.1035 49.7934 21.5487 50.9114 21.5487C51.7933 21.5487 52.4906 21.2481 53.0036 20.6486C53.2498 21.2103 53.6446 21.4911 54.1882 21.4911L54.1886 21.4877ZM61.1894 14.1435L59.6664 17.9569L58.2527 14.3503C58.0989 13.9464 57.9605 13.6753 57.8372 13.5374C57.6319 13.3106 57.35 13.1975 56.991 13.1975C56.6422 13.1975 56.3526 13.3109 56.1219 13.5374C56.0103 13.6432 55.9216 13.7732 55.8619 13.9185C55.8021 14.0638 55.7728 14.2211 55.7758 14.3795C55.7758 14.616 55.8218 14.8376 55.9142 15.0446L58.4207 20.6742L57.3962 22.8156C57.2593 23.1193 57.191 23.3888 57.191 23.6243C57.191 23.9771 57.3037 24.2565 57.5294 24.4624C57.7551 24.6683 58.0523 24.7709 58.4219 24.7709C58.8627 24.7709 59.2268 24.4505 59.5141 23.8102L63.3123 15.1634C63.4455 14.8581 63.5122 14.582 63.5122 14.3357C63.5122 13.577 63.1035 13.1977 62.2815 13.1977C61.8101 13.1975 61.4459 13.5127 61.1915 14.1435H61.1894ZM69.6244 19.1524H67.168L70.4698 15.075C70.8064 14.6607 70.9747 14.3105 70.9747 14.0245C70.9747 13.7087 70.8462 13.5089 70.5901 13.425C70.3339 13.3412 69.9388 13.299 69.4055 13.299H65.4212C64.3647 13.299 63.8367 13.6591 63.8367 14.378C63.8367 15.1074 64.3596 15.4718 65.4059 15.4718H67.5441L64.1274 19.714C63.8813 20.0195 63.7582 20.3251 63.7582 20.6321C63.7582 21.1249 64.1942 21.371 65.0657 21.371H69.6039C70.65 21.371 71.1731 21.0067 71.1731 20.2773C71.1731 19.5284 70.6563 19.154 69.6227 19.154L69.6244 19.1524Z" fill="#8CC23C"/>
</g>
<defs>
<clipPath id="clip0_109_146">
<rect width="60" height="15" fill="white" transform="translate(11.1748 9.76904)"/>
</clipPath>
</defs>
</svg>
