<svg width="81" height="36" viewBox="0 0 81 36" fill="none" xmlns="http://www.w3.org/2000/svg">
<path fill-rule="evenodd" clip-rule="evenodd" d="M46.6293 19.2316C46.6293 19.8539 46.6293 20.4762 46.6293 21.0985C46.6293 21.3495 46.5792 21.6004 46.4687 21.8313C46.258 22.3231 45.8766 22.584 45.3345 22.6142C45.2944 22.6142 45.2542 22.6142 45.2241 22.6142C44.3409 22.6142 43.4676 22.6142 42.5844 22.6142C42.4137 22.6142 42.2431 22.5941 42.0825 22.564C41.5304 22.4435 41.1892 22.0822 41.0587 21.5301C41.0186 21.3495 40.9884 21.1588 40.9884 20.9681C40.9784 19.7837 40.9884 18.6093 40.9884 17.4249C40.9884 17.3246 41.0085 17.2242 41.0286 17.1339C41.0888 16.9331 41.2193 16.8428 41.42 16.8428C41.6609 16.8428 41.9018 16.8428 42.1427 16.8428C42.3836 16.8428 42.6145 16.8428 42.8554 16.8428C42.9457 16.8428 43.036 16.8628 43.1163 16.893C43.307 16.9632 43.4074 17.1238 43.4074 17.3346C43.4074 18.2279 43.4074 19.1112 43.4074 20.0045C43.4074 20.1049 43.4174 20.2052 43.4375 20.2956C43.4777 20.4863 43.6081 20.5967 43.7888 20.6067C43.9996 20.6168 44.1602 20.5264 44.2204 20.3357C44.2505 20.2454 44.2606 20.155 44.2606 20.0547C44.2606 19.1714 44.2606 18.2781 44.2606 17.3948C44.2606 17.2944 44.2706 17.1941 44.2806 17.1037C44.3007 16.9532 44.4011 16.8729 44.5416 16.8528C44.5918 16.8428 44.642 16.8428 44.6922 16.8428C45.1438 16.8428 45.5855 16.8428 46.0371 16.8428C46.1074 16.8428 46.1777 16.8528 46.2379 16.8628C46.4386 16.893 46.5691 17.0335 46.5892 17.2342C46.5992 17.2844 46.5992 17.3346 46.5992 17.3948C46.6394 18.0171 46.6394 18.6194 46.6293 19.2316C46.6394 19.2316 46.6293 19.2316 46.6293 19.2316Z" fill="white"/>
<path fill-rule="evenodd" clip-rule="evenodd" d="M32.3565 14.7969C33.3201 14.7969 34.2837 14.7969 35.2372 14.7969C35.3275 14.7969 35.4179 14.8069 35.5082 14.817C35.6487 14.8471 35.7089 14.9173 35.7089 15.0578C35.7089 15.1883 35.7089 15.3188 35.7089 15.4393C35.7089 15.7604 35.7089 16.0816 35.7089 16.4028C35.7089 16.6136 35.6587 16.6638 35.448 16.6738C35.1669 16.6839 34.8859 16.6738 34.6149 16.6738C34.374 16.6738 34.1431 16.6738 33.9022 16.6738C33.8822 16.6738 33.8621 16.6738 33.842 16.6738C33.6513 16.6839 33.6112 16.724 33.6112 16.9147C33.6112 18.6612 33.6112 20.3976 33.6112 22.1441C33.6112 22.2043 33.6112 22.2746 33.6011 22.3348C33.5911 22.4452 33.5309 22.5255 33.4205 22.5556C33.3402 22.5757 33.2699 22.5958 33.1896 22.5958C32.8985 22.6058 32.6074 22.5958 32.3164 22.5958C31.9952 22.5958 31.684 22.5958 31.3628 22.5958C31.2926 22.5958 31.2223 22.5857 31.152 22.5657C31.0617 22.5456 31.0115 22.4854 30.9914 22.395C30.9814 22.3348 30.9814 22.2645 30.9814 22.2043C30.9814 20.4679 30.9814 18.7315 30.9814 16.995C30.9814 16.9448 30.9814 16.8846 30.9814 16.8344C30.9714 16.7441 30.9413 16.7039 30.8509 16.6939C30.8007 16.6839 30.7506 16.6839 30.7004 16.6839C30.2487 16.6839 29.8071 16.6839 29.3554 16.6839C29.2952 16.6839 29.2249 16.6839 29.1647 16.6738C29.0643 16.6538 29.0141 16.6036 29.0041 16.5032C29.0041 16.463 28.994 16.4129 28.994 16.3727C28.994 15.9712 28.994 15.5697 28.994 15.1582C28.994 14.8972 29.0743 14.8169 29.3353 14.8069C29.3855 14.8069 29.4457 14.8069 29.4959 14.8069C30.4494 14.7969 31.403 14.7969 32.3565 14.7969Z" fill="white"/>
<path fill-rule="evenodd" clip-rule="evenodd" d="M64.0936 19.4225C64.214 19.1214 64.3344 18.8103 64.4649 18.5092C64.6255 18.1077 64.7861 17.7162 64.9467 17.3147C65.0069 17.1742 65.0872 17.0437 65.2077 16.9534C65.288 16.8932 65.3884 16.853 65.4887 16.853C65.9203 16.853 66.3519 16.853 66.7936 16.853C66.8739 16.853 66.9542 16.8631 67.0244 16.8831C67.1348 16.9133 67.175 16.9935 67.1449 17.104C67.1348 17.1541 67.1148 17.2043 67.0947 17.2545C66.101 19.5932 65.1073 21.9318 64.1136 24.2605C64.0634 24.3809 63.9932 24.4913 63.9029 24.5917C63.8025 24.6921 63.682 24.7423 63.5415 24.7423C63.1601 24.7423 62.7887 24.7423 62.4073 24.7423C62.337 24.7423 62.2668 24.7322 62.2066 24.7222C62.0359 24.6921 61.9757 24.6017 62.0259 24.4411C62.0359 24.391 62.056 24.3508 62.0761 24.3006C62.317 23.7185 62.5679 23.1363 62.8188 22.5542C62.8489 22.4839 62.8489 22.4337 62.8188 22.3634C62.1363 20.6772 61.4538 18.9909 60.7712 17.3047C60.7512 17.2545 60.7311 17.2043 60.7211 17.1541C60.6809 17.0036 60.7411 16.9032 60.9017 16.8731C60.972 16.8631 61.0322 16.853 61.1025 16.853C61.6545 16.853 62.2066 16.853 62.7686 16.853C62.9192 16.853 63.0497 16.9032 63.1501 17.0136C63.2404 17.104 63.3006 17.2144 63.3408 17.3248C63.5716 17.9872 63.8025 18.6497 64.0434 19.3021C64.0534 19.3423 64.0735 19.3724 64.0835 19.4125C64.0735 19.4225 64.0835 19.4225 64.0936 19.4225Z" fill="white"/>
<path fill-rule="evenodd" clip-rule="evenodd" d="M50.022 22.7648C49.209 22.7447 48.5466 22.6845 47.8841 22.5139C47.8139 22.4938 47.7436 22.4637 47.6633 22.4537C47.593 22.4336 47.5629 22.3934 47.5429 22.3232C47.4927 22.0823 47.4826 21.8414 47.4826 21.6005C47.4826 21.46 47.5027 21.3195 47.5228 21.189C47.5228 21.1589 47.5328 21.1288 47.5429 21.0986C47.593 20.928 47.6332 20.9079 47.8038 20.9481C48.3358 21.0886 48.8878 21.1288 49.4399 21.1087C49.5403 21.1087 49.6306 21.0886 49.731 21.0685C49.7812 21.0585 49.8414 21.0284 49.8815 20.9983C49.9819 20.918 49.9819 20.7975 49.8916 20.7172C49.8313 20.667 49.7611 20.6169 49.6808 20.5867C49.5503 20.5165 49.4098 20.4663 49.2693 20.4061C49.0384 20.2957 48.8075 20.1953 48.5767 20.0648C48.3358 19.9343 48.125 19.7737 47.9644 19.5529C47.583 19.041 47.4927 18.489 47.7235 17.8867C47.8239 17.6057 48.0347 17.3949 48.2756 17.2343C48.5968 17.0035 48.9681 16.873 49.3496 16.7826C49.8113 16.6823 50.273 16.6622 50.7447 16.6722C51.096 16.6823 51.4473 16.6923 51.7886 16.7626C51.8689 16.7826 51.9492 16.8128 52.0295 16.8228C52.1098 16.8429 52.1499 16.8931 52.16 16.9734C52.16 17.1139 52.17 17.2544 52.16 17.3949C52.1399 17.5957 52.0997 17.7864 52.0295 17.9771C52.0194 18.0072 52.0094 18.0373 51.9994 18.0574C51.909 18.2481 51.8589 18.2682 51.6581 18.2481C51.347 18.2079 51.0258 18.1678 50.7146 18.1377C50.6142 18.1276 50.5139 18.1377 50.4235 18.1377C50.3633 18.1377 50.3031 18.1577 50.2429 18.1678C50.1626 18.1879 50.1023 18.238 50.0923 18.3284C50.0823 18.4187 50.1325 18.4589 50.1927 18.499C50.293 18.5592 50.3934 18.6195 50.4938 18.6696C50.7246 18.7901 50.9655 18.8905 51.1964 19.0109C51.4774 19.1615 51.7284 19.3321 51.9492 19.5629C52.3507 19.9644 52.5313 20.4563 52.4912 21.0183C52.4812 21.1789 52.451 21.3496 52.4109 21.5102C52.2905 21.9217 52.0295 22.2228 51.6581 22.4336C51.367 22.5942 51.0458 22.6845 50.7146 22.7247C50.4436 22.7447 50.1726 22.7548 50.022 22.7648Z" fill="white"/>
<path fill-rule="evenodd" clip-rule="evenodd" d="M53.6251 18.4186C53.5348 18.4186 53.4545 18.4186 53.3642 18.4186C53.3039 18.4186 53.2538 18.4186 53.1935 18.4086C53.0932 18.3985 53.0229 18.3383 52.9928 18.248C52.9727 18.1878 52.9627 18.1275 52.9627 18.0673C52.9627 17.7762 52.9627 17.4952 52.9627 17.2041C52.9627 17.1941 52.9627 17.174 52.9627 17.1539C52.9828 16.9632 53.0831 16.8628 53.2638 16.8528C53.3742 16.8428 53.4946 16.8528 53.6051 16.8528C53.6452 16.8528 53.6854 16.8528 53.7355 16.8528C53.7355 16.8127 53.7456 16.7725 53.7456 16.7324C53.7456 16.5316 53.7456 16.3309 53.7456 16.1301C53.7456 15.9595 53.8158 15.829 53.9664 15.7588C54.0467 15.7186 54.137 15.6785 54.2274 15.6584C54.669 15.5781 55.1207 15.5078 55.5623 15.4376C55.6225 15.4275 55.6828 15.4376 55.743 15.4376C55.8333 15.4476 55.8835 15.5078 55.8935 15.5982C55.9036 15.6785 55.9136 15.7588 55.9136 15.8391C55.9136 16.1402 55.9136 16.4513 55.9136 16.7524C55.9136 16.7825 55.9136 16.8026 55.9236 16.8428C55.9538 16.8428 55.9939 16.8528 56.024 16.8528C56.2047 16.8528 56.3954 16.8528 56.5761 16.8528C56.7367 16.8528 56.837 16.913 56.8772 17.0736C56.9073 17.1539 56.9173 17.2543 56.9173 17.3346C56.9274 17.5956 56.9173 17.8465 56.9173 18.1075C56.9173 18.1275 56.9173 18.1576 56.9173 18.1777C56.9073 18.3684 56.837 18.4387 56.6463 18.4387C56.4556 18.4387 56.2649 18.4387 56.0842 18.4387C56.0541 18.4387 56.024 18.4387 55.9939 18.4487C55.9939 18.4889 55.9839 18.529 55.9839 18.5692C55.9839 19.2818 55.9839 19.9945 55.9839 20.7071C55.9839 20.9179 56.0541 21.0082 56.2649 21.0383C56.3352 21.0484 56.4054 21.0484 56.4757 21.0484C56.556 21.0484 56.5761 21.0484 56.6062 21.1287C56.6363 21.2391 56.6664 21.3495 56.6965 21.4599C56.7567 21.751 56.7868 22.042 56.7868 22.3331C56.7868 22.3733 56.7868 22.4134 56.7868 22.4435C56.7868 22.5238 56.7567 22.564 56.6865 22.584C56.4958 22.6242 56.295 22.6744 56.1043 22.7045C55.7731 22.7547 55.4318 22.7748 55.0906 22.7346C54.7092 22.6844 54.3578 22.564 54.0768 22.2829C53.8259 22.032 53.6854 21.7208 53.6452 21.3695C53.6251 21.1788 53.6251 20.9781 53.6251 20.7874C53.6251 20.0246 53.6251 19.2617 53.6251 18.4989C53.6251 18.4788 53.6251 18.4588 53.6251 18.4186Z" fill="white"/>
<path fill-rule="evenodd" clip-rule="evenodd" d="M57.7803 18.6598C57.7803 17.4654 57.7803 16.281 57.7803 15.0866C57.7803 15.0364 57.7803 14.9963 57.7803 14.9461C57.7904 14.7955 57.8907 14.6952 58.0413 14.6751C58.0814 14.6751 58.1216 14.665 58.1617 14.665C58.6435 14.665 59.1153 14.665 59.5971 14.665C59.6974 14.665 59.7978 14.6751 59.8881 14.6951C60.0487 14.7253 60.0989 14.7955 60.109 14.9461C60.109 14.9862 60.109 15.0264 60.109 15.0665C60.109 17.4253 60.109 19.784 60.109 22.1528C60.109 22.213 60.109 22.2732 60.0989 22.3335C60.0788 22.494 59.9986 22.5743 59.848 22.5944C59.7978 22.6045 59.7476 22.6045 59.6974 22.6045C59.1855 22.6045 58.6736 22.6045 58.1617 22.6045C58.0915 22.6045 58.0112 22.6045 57.9409 22.5844C57.8506 22.5743 57.8004 22.5141 57.7904 22.4238C57.7803 22.3736 57.7803 22.3234 57.7803 22.2732C57.7803 21.5606 57.7803 20.8479 57.7803 20.1353C57.7803 19.6535 57.7803 19.1517 57.7803 18.6598Z" fill="white"/>
<path fill-rule="evenodd" clip-rule="evenodd" d="M36.0904 20.0245C36.0904 19.4122 36.0904 18.8 36.0904 18.1777C36.0904 18.0371 36.1004 17.8966 36.1305 17.7661C36.1908 17.4249 36.3915 17.184 36.7127 17.0334C36.9235 16.9431 37.1443 16.8929 37.3651 16.8829C37.6261 16.8728 37.8971 16.8628 38.1581 16.8628C38.7804 16.8628 39.4027 16.8628 40.025 16.8628C40.035 16.8628 40.0551 16.8628 40.0752 16.8628C40.2558 16.8628 40.306 16.913 40.306 17.0937C40.306 17.4751 40.306 17.8665 40.306 18.2479C40.306 18.278 40.306 18.2981 40.306 18.3282C40.296 18.4386 40.2257 18.5089 40.1153 18.5189C40.025 18.529 39.9447 18.529 39.8543 18.529C39.6636 18.539 39.4729 18.5591 39.2822 18.5792C39.1216 18.5992 38.9811 18.6595 38.8406 18.7397C38.5997 18.8803 38.4692 19.091 38.4491 19.3621C38.4491 19.4223 38.4491 19.4925 38.4491 19.5528C38.4491 20.4059 38.4491 21.2591 38.4491 22.1122C38.4491 22.1925 38.4391 22.2728 38.4291 22.3531C38.3989 22.5137 38.2986 22.6041 38.138 22.6141C38.1079 22.6141 38.0878 22.6141 38.0577 22.6141C37.5759 22.6141 37.1041 22.6141 36.6224 22.6141C36.5521 22.6141 36.4818 22.6041 36.4216 22.584C36.251 22.5438 36.1506 22.4234 36.1205 22.2528C36.1105 22.1825 36.1004 22.1022 36.1004 22.0319C36.0904 21.3595 36.0904 20.687 36.0904 20.0245Z" fill="white"/>
<path fill-rule="evenodd" clip-rule="evenodd" d="M24.5768 14.7944C24.6471 14.7944 24.6973 14.8045 24.7374 14.8045C25.3096 14.8045 25.8716 14.8045 26.4438 14.8045C26.6445 14.8045 26.8452 14.8446 27.0359 14.9349C27.3873 15.1156 27.5077 15.3967 27.4374 15.768C27.317 16.3703 27.1765 16.9625 27.0359 17.5647C26.7951 18.6487 26.5542 19.7227 26.3133 20.8067C26.243 21.1078 26.1828 21.419 26.1125 21.7201C26.0423 22.0312 25.8917 22.2822 25.6006 22.4428C25.43 22.5431 25.2393 22.5732 25.0486 22.5833C24.9382 22.5933 24.8177 22.5833 24.7073 22.5833C21.8166 22.5833 18.9259 22.5833 16.0452 22.5833C15.8043 22.5833 15.5735 22.5331 15.3727 22.3926C15.1519 22.242 15.0214 22.0312 14.9612 21.7803C14.8709 21.3889 14.7805 20.9974 14.6902 20.606C14.369 19.1606 14.0378 17.7152 13.7166 16.2599C13.6764 16.0993 13.6363 15.9387 13.6162 15.7781C13.5961 15.6576 13.5961 15.5372 13.6162 15.4167C13.6463 15.216 13.7768 15.0755 13.9474 14.9651C14.1482 14.8446 14.379 14.7944 14.6099 14.7944C15.172 14.7944 15.7441 14.7944 16.3062 14.7944C16.4768 14.7944 16.4768 14.7944 16.4768 14.6238C16.4768 14.2825 16.4768 13.9413 16.4768 13.61C16.4668 11.7331 17.7716 10.1071 19.5984 9.66541C20.0501 9.55501 20.5017 9.53493 20.9634 9.58512C21.7463 9.66541 22.4389 9.95649 23.0512 10.4483C23.7939 11.0505 24.2757 11.8234 24.4865 12.7569C24.5467 13.0279 24.5768 13.3089 24.5768 13.59C24.5768 13.9413 24.5768 14.2926 24.5768 14.6439C24.5768 14.694 24.5768 14.7342 24.5768 14.7944ZM20.5218 14.8045C21.3348 14.8045 22.1579 14.8045 22.9709 14.8045C23.001 14.8045 23.0411 14.8045 23.0713 14.8045C23.1415 14.8045 23.1516 14.7944 23.1616 14.7141C23.1616 14.684 23.1616 14.6539 23.1616 14.6238C23.1616 14.2725 23.1616 13.9212 23.1616 13.5699C23.1616 13.3892 23.1516 13.2186 23.1214 13.0379C23.011 12.4056 22.7099 11.8736 22.2081 11.4721C21.6259 10.9903 20.9534 10.7996 20.2006 10.8799C19.8092 10.9201 19.4478 11.0505 19.1266 11.2613C18.3237 11.7833 17.9121 12.5361 17.882 13.4896C17.872 13.871 17.882 14.2524 17.882 14.6338C17.882 14.7944 17.882 14.7944 18.0426 14.7944C18.8757 14.8045 19.6988 14.8045 20.5218 14.8045ZM20.5218 16.4305C20.5218 16.4305 20.5218 16.4405 20.5218 16.4305C19.9999 16.4305 19.4779 16.4305 18.956 16.4305C18.7854 16.4305 18.7252 16.4907 18.7252 16.6613C18.7252 16.842 18.7252 17.0227 18.7252 17.2033C18.7252 17.4242 18.7553 17.4543 18.9761 17.4643C19.1768 17.4643 19.3776 17.4643 19.5783 17.4643C19.769 17.4643 19.769 17.4643 19.769 17.655C19.769 18.5182 19.769 19.3814 19.769 20.2446C19.769 20.2948 19.769 20.355 19.7791 20.4052C19.7991 20.5257 19.8393 20.5758 19.9597 20.5758C20.2809 20.5859 20.5921 20.5859 20.9133 20.5859C20.9534 20.5859 20.9936 20.5859 21.0337 20.5758C21.124 20.5658 21.1742 20.5156 21.1943 20.4253C21.2043 20.3751 21.2043 20.3249 21.2043 20.2647C21.2043 19.3814 21.2043 18.5082 21.2043 17.6249C21.2043 17.4744 21.2043 17.4643 21.3649 17.4643C21.5958 17.4643 21.8266 17.4643 22.0575 17.4643C22.1077 17.4643 22.1579 17.4543 22.2181 17.4442C22.2683 17.4342 22.2984 17.4041 22.3084 17.3539C22.3185 17.3238 22.3185 17.2836 22.3185 17.2535C22.3185 17.0528 22.3185 16.8621 22.3185 16.6613C22.3185 16.4807 22.2582 16.4305 22.0876 16.4305C22.0575 16.4305 22.0274 16.4305 21.9973 16.4305C21.4954 16.4305 21.0136 16.4305 20.5218 16.4305Z" fill="#87BD5C"/>
<path fill-rule="evenodd" clip-rule="evenodd" d="M21.6762 24.511C21.6561 23.6779 22.3788 22.9251 23.2821 22.9352C24.1353 22.9452 24.858 23.6578 24.858 24.5411C24.8479 25.4244 24.1152 26.1471 23.2219 26.127C22.4089 26.1069 21.6561 25.4143 21.6762 24.511Z" fill="#87BD5C"/>
<path fill-rule="evenodd" clip-rule="evenodd" d="M19.3875 24.5308C19.4076 25.394 18.6749 26.1267 17.7916 26.1267C16.9083 26.1267 16.1957 25.394 16.1957 24.5308C16.1957 23.6475 16.9384 22.9349 17.7916 22.9449C18.6548 22.9349 19.3975 23.6475 19.3875 24.5308Z" fill="#87BD5C"/>
</svg>
