<svg width="50" height="50" viewBox="0 0 50 50" fill="none" xmlns="http://www.w3.org/2000/svg">
<path d="M49.1891 36.5157H3.45768C2.9986 36.5157 2.63721 36.1445 2.63721 35.6952V6.30484C2.63721 5.84577 3.00837 5.48438 3.45768 5.48438H49.1793C49.6384 5.48438 49.9998 5.85554 49.9998 6.30484V35.6952C50.0096 36.1445 49.6384 36.5157 49.1891 36.5157Z" fill="#41479B"/>
<path d="M25.5029 5.47461H24.0866L16.5168 10.4267V5.47461H12.434V10.4267L4.87396 5.47461H3.45768C3.00837 5.47461 2.63721 5.83601 2.63721 6.29508V6.93973L9.13259 11.1886H2.63721V15.2714H9.13259L2.63721 19.53V20.1747C2.63721 20.624 2.9986 20.9952 3.45768 20.9952H4.87396L12.4438 16.043V20.9952H16.5266V16.043L24.0964 20.9952H25.5127C25.962 20.9952 26.3331 20.6338 26.3331 20.1747V19.53L19.828 15.2812H26.3234V11.1984H19.828L26.3234 6.9495V6.30485C26.3234 5.84577 25.962 5.47461 25.5029 5.47461Z" fill="#F5F5F5"/>
<path d="M26.3234 12.0091H15.7061V5.47461H13.2545V12.0091H2.63721V14.4607H13.2545V20.9952H15.7061V14.4607H26.3234V12.0091Z" fill="#FF4B55"/>
<path d="M11.6233 11.1983L3.02791 5.61133C2.80325 5.75784 2.63721 6.00203 2.63721 6.28529V6.32436L10.1191 11.1788H11.6233V11.1983Z" fill="#FF4B55"/>
<path d="M18.021 11.1984L26.1964 5.89461C26.0499 5.65042 25.8057 5.48438 25.5029 5.48438H25.3271L16.5168 11.1984H18.021Z" fill="#FF4B55"/>
<path d="M10.92 15.2812L2.75439 20.5752C2.89114 20.8194 3.14509 20.9952 3.45765 20.9952H3.61393L12.4242 15.2812H10.92Z" fill="#FF4B55"/>
<path d="M26.3136 20.2431L18.6657 15.2812H17.1615L25.8448 20.9171C26.1085 20.7999 26.2843 20.5459 26.3136 20.2431Z" fill="#FF4B55"/>
<path d="M14.7294 25.449L15.3448 27.4807L17.3178 26.6895C17.4838 26.6211 17.6401 26.8165 17.5327 26.963L16.3215 28.7114L18.1676 29.7663C18.3239 29.8542 18.275 30.0984 18.0894 30.1081L15.9699 30.2546L16.302 32.3546C16.3313 32.5305 16.1066 32.6379 15.9894 32.5109L14.5536 30.9579L13.1178 32.5207C12.9908 32.6574 12.7759 32.55 12.8052 32.3644L13.1373 30.2644L11.0178 30.1179C10.8322 30.1081 10.7833 29.8639 10.9396 29.776L12.7857 28.7211L11.5745 26.9728C11.4671 26.8262 11.6234 26.6309 11.7894 26.6993L13.7624 27.4904L14.3778 25.4588C14.4266 25.2732 14.6708 25.2732 14.7294 25.449Z" fill="#F5F5F5"/>
<path d="M39.0212 10.9736L39.324 11.9699L40.291 11.589C40.3691 11.5597 40.4473 11.6476 40.3984 11.7257L39.8124 12.5853L40.711 13.103C40.7891 13.142 40.7598 13.2592 40.6719 13.269L39.6366 13.3374L39.7928 14.363C39.8026 14.4509 39.6952 14.4997 39.6366 14.4411L38.9333 13.6792L38.23 14.4411C38.1714 14.5095 38.064 14.4509 38.0738 14.363L38.23 13.3374L37.1947 13.269C37.1068 13.2592 37.0775 13.142 37.1556 13.103L38.0542 12.5853L37.4682 11.7257C37.4193 11.6574 37.4975 11.5597 37.5756 11.589L38.5426 11.9699L38.8454 10.9736C38.8747 10.8955 39.0017 10.8955 39.0212 10.9736Z" fill="#F5F5F5"/>
<path d="M32.3109 18.6118L32.6137 19.6081L33.5807 19.2272C33.6588 19.1979 33.737 19.2858 33.6882 19.3639L33.1021 20.2235L34.0007 20.7411C34.0789 20.7802 34.0496 20.8974 33.9616 20.9072L32.9263 20.9756L33.0826 22.0012C33.0923 22.0891 32.9849 22.1379 32.9263 22.0793L32.223 21.3174L31.5198 22.0793C31.4612 22.1477 31.3537 22.0891 31.3635 22.0012L31.5198 20.9756L30.4844 20.9072C30.3965 20.8974 30.3672 20.7802 30.4453 20.7411L31.344 20.2235L30.7579 19.3639C30.7091 19.2956 30.7872 19.1979 30.8653 19.2272L31.8323 19.6081L32.1351 18.6118C32.1644 18.5239 32.2816 18.5239 32.3109 18.6118Z" fill="#F5F5F5"/>
<path d="M45.3798 15.3399L45.6826 16.3361L46.6496 15.9552C46.7277 15.9259 46.8058 16.0138 46.757 16.092L46.171 16.9515L47.0696 17.4692C47.1477 17.5082 47.1184 17.6255 47.0305 17.6352L45.9951 17.7036L46.1514 18.7292C46.1612 18.8171 46.0537 18.8659 45.9951 18.8073L45.2919 18.0455L44.5886 18.8073C44.53 18.8757 44.4226 18.8171 44.4323 18.7292L44.5886 17.7036L43.5533 17.6352C43.4654 17.6255 43.4361 17.5082 43.5142 17.4692L44.4128 16.9515L43.8268 16.092C43.7779 16.0236 43.8561 15.9259 43.9342 15.9552L44.9012 16.3361L45.204 15.3399C45.2333 15.2519 45.3505 15.2519 45.3798 15.3399Z" fill="#F5F5F5"/>
<path d="M39.0212 28.4087L39.324 29.405L40.291 29.0241C40.3691 28.9948 40.4473 29.0827 40.3984 29.1608L39.8124 30.0203L40.711 30.538C40.7891 30.5771 40.7598 30.6943 40.6719 30.7041L39.6366 30.7724L39.7928 31.798C39.8026 31.8859 39.6952 31.9348 39.6366 31.8762L38.9333 31.1143L38.23 31.8762C38.1714 31.9445 38.064 31.8859 38.0738 31.798L38.23 30.7724L37.1947 30.7041C37.1068 30.6943 37.0775 30.5771 37.1556 30.538L38.0542 30.0203L37.4682 29.1608C37.4193 29.0924 37.4975 28.9948 37.5756 29.0241L38.5426 29.405L38.8454 28.4087C38.8747 28.3208 39.0017 28.3208 39.0212 28.4087Z" fill="#F5F5F5"/>
<path d="M41.3556 20.3994L41.1114 21.1222L40.3496 21.132C40.2519 21.132 40.2128 21.259 40.291 21.3176L40.9063 21.7669L40.6719 22.4994C40.6426 22.5971 40.75 22.6753 40.8282 22.6166L41.4533 22.1673L42.0784 22.6166C42.1565 22.6753 42.264 22.5971 42.2347 22.4994L42.0003 21.7669L42.6156 21.3176C42.6938 21.259 42.6547 21.132 42.557 21.132L41.7952 21.1222L41.551 20.3994C41.5217 20.3018 41.3849 20.3018 41.3556 20.3994Z" fill="#F5F5F5"/>
<path d="M1.86559 47.6703C0.840005 47.6703 0 46.8303 0 45.8047V4.18541C0 3.15983 0.830237 2.32959 1.85582 2.32959H1.87536C2.91071 2.32959 3.74095 3.16959 3.74095 4.19518V45.8047C3.73118 46.8303 2.90095 47.6703 1.86559 47.6703Z" fill="#68613D"/>
</svg>
