<svg width="50" height="50" viewBox="0 0 50 50" fill="none" xmlns="http://www.w3.org/2000/svg">
<g clip-path="url(#clip0_1_853)">
<path d="M50 32.6807V38.3735C50 40.3068 44.8443 41.918 38.5071 41.918C32.1699 41.918 27.1216 40.3606 27.1216 38.4272V37.7828L27.0142 33.2715H27.0678C27.9271 34.9364 32.6532 36.2254 38.3459 36.2254C44.0386 36.2254 49.8926 34.6142 49.8926 32.6808H50V32.6807Z" fill="#68613D"/>
<path d="M38.1848 11.5205V17.1595H38.0774C38.0774 19.1467 32.7606 20.7041 26.4771 20.7041C24.0603 20.7578 21.5899 20.4893 19.2268 19.8985L19.1194 20.0059C17.9379 19.0393 16.5953 18.2874 15.1452 17.8041V17.6967L14.9841 11.7354C15.3601 13.5613 20.3547 15.0113 26.4234 15.0113C32.4921 15.0113 38.0774 13.4539 38.0774 11.5205H38.1848Z" fill="url(#paint0_linear_1_853)"/>
<path d="M38.1848 11.6279C38.1848 13.5613 32.868 15.1187 26.5308 15.1187C20.1936 15.1187 15.4138 13.6687 15.0379 11.8428C15.0379 11.7891 14.9843 11.6817 14.9843 11.6279C14.9843 9.69455 20.1399 8.08333 26.5309 8.08333C32.9217 8.02967 38.1848 9.64078 38.1848 11.6279Z" fill="#FEDB41"/>
<path d="M27.0678 33.2714L27.0142 32.0898L26.9068 27.2564C27.2827 29.0823 32.2773 30.5324 38.346 30.5324C44.4147 30.5324 49.7853 28.9749 49.9463 27.0952H50V32.6806H49.8926C49.8926 34.614 44.6831 36.2252 38.3459 36.2252C32.0088 36.2251 27.9272 34.9362 27.0678 33.2714Z" fill="url(#paint1_linear_1_853)"/>
<path d="M19.388 36.8696C20.838 35.527 21.9659 33.8083 22.5566 31.9287H22.8251C24.0066 32.0361 25.1881 32.0898 26.4771 32.0898H27.0141V33.2713L27.1215 37.7826H26.5307C24.1677 37.8363 21.8584 37.5678 19.5491 37.0308L19.388 36.8696Z" fill="#68613D"/>
<path d="M27.0678 26.8265V27.095L27.1752 32.0896H26.6381C25.2955 32.0896 24.0602 32.036 22.8788 31.9285H22.6103C22.9862 30.8008 23.1473 29.6192 23.1473 28.4377C23.1473 27.6321 23.0399 26.8803 22.8788 26.1284H23.1473C24.2751 26.2358 25.4029 26.2895 26.6381 26.2895L27.1215 26.558C27.0678 26.6653 27.0678 26.7727 27.0678 26.8265Z" fill="url(#paint2_linear_1_853)"/>
<path d="M19.2269 19.8986C21.59 20.4894 24.0603 20.7579 26.4772 20.7043C32.7606 20.7043 38.0775 19.1468 38.0775 17.1597H38.1849V23.4969C32.331 23.4969 27.5513 24.8933 26.9605 26.6655L26.4772 26.3969C25.2956 26.3969 24.1679 26.3433 23.0938 26.2359H22.8253C22.3419 23.7654 21.053 21.5635 19.1196 19.9523L19.2269 19.8986Z" fill="#68613D"/>
<path d="M22.9326 26.2357C22.3956 23.7652 21.0529 21.5097 19.1195 19.8448C17.938 18.7707 16.5416 18.0189 15.0379 17.5892C13.9638 17.2133 12.7823 17.0522 11.6545 17.0522C5.26352 16.9983 0.0540632 22.1004 0.000404148 28.4912C-0.053255 34.8821 5.04868 40.0916 11.4397 40.1452C14.3935 40.1452 17.1861 39.0711 19.388 37.084C20.8918 35.6876 22.0195 33.9154 22.6103 31.982C22.9862 30.8542 23.1473 29.7263 23.1473 28.5448C23.1474 27.7932 22.9326 26.9875 22.9326 26.2357Z" fill="white"/>
<path d="M49.9463 26.9873V27.0947C49.7852 28.9744 44.5758 30.5319 38.346 30.5319C32.1162 30.5319 27.2827 29.0819 26.9067 27.2559V26.9874C26.9067 26.88 26.9067 26.7726 26.9604 26.6651C27.5512 24.8929 32.3309 23.4966 38.1848 23.4966H38.3459C44.6832 23.4965 49.9463 25.0539 49.9463 26.9873Z" fill="#FEDB41"/>
<path d="M11.6545 27.1487C10.6878 27.1487 9.88222 26.3431 9.88222 25.3764C9.88222 24.4097 10.6878 23.6041 11.6545 23.6041C12.6212 23.6041 13.4268 24.4097 13.4268 25.3764C13.4268 25.9672 13.9102 26.4505 14.5009 26.4505C15.0917 26.4505 15.575 25.9672 15.575 25.3764C15.575 23.6579 14.3935 22.1004 12.7286 21.6171V21.1874C12.7286 20.5966 12.2453 20.1133 11.6545 20.1133C11.0638 20.1133 10.5804 20.5966 10.5804 21.1874V21.6171C8.86188 22.0468 7.68035 23.6042 7.73401 25.3764C7.73401 27.5246 9.5063 29.2969 11.6545 29.2969C12.6212 29.2969 13.4268 30.1025 13.4268 31.0692C13.4268 32.0359 12.6212 32.8415 11.6545 32.8415C10.6878 32.8415 9.88222 32.0359 9.88222 31.0692C9.88222 30.4784 9.39888 29.9951 8.80812 29.9951C8.21735 29.9951 7.73401 30.4784 7.73401 31.0692C7.73401 32.8415 8.91554 34.3452 10.5804 34.8285V35.6878C10.5804 36.2785 11.0638 36.7619 11.6545 36.7619C12.2453 36.7619 12.7286 36.2785 12.7286 35.6878V34.8285C14.8231 34.2377 16.0046 32.0359 15.3602 29.9413C14.8768 28.3302 13.373 27.1487 11.6545 27.1487Z" fill="url(#paint3_linear_1_853)"/>
</g>
<defs>
<linearGradient id="paint0_linear_1_853" x1="-20.3126" y1="11.5205" x2="1.27289" y2="41.9424" gradientUnits="userSpaceOnUse">
<stop stop-color="#CAFF70"/>
<stop offset="1" stop-color="#2FC423"/>
</linearGradient>
<linearGradient id="paint1_linear_1_853" x1="-8.22656" y1="27.0952" x2="13.2033" y2="57.3567" gradientUnits="userSpaceOnUse">
<stop stop-color="#CAFF70"/>
<stop offset="1" stop-color="#2FC423"/>
</linearGradient>
<linearGradient id="paint2_linear_1_853" x1="15.6654" y1="26.1284" x2="26.3887" y2="30.7129" gradientUnits="userSpaceOnUse">
<stop stop-color="#CAFF70"/>
<stop offset="1" stop-color="#2FC423"/>
</linearGradient>
<linearGradient id="paint3_linear_1_853" x1="-4.19948" y1="20.1133" x2="16.1813" y2="25.4733" gradientUnits="userSpaceOnUse">
<stop stop-color="#CAFF70"/>
<stop offset="1" stop-color="#2FC423"/>
</linearGradient>
<clipPath id="clip0_1_853">
<rect width="50" height="50" fill="white"/>
</clipPath>
</defs>
</svg>
