<svg width="34" height="38" viewBox="0 0 34 38" fill="none" xmlns="http://www.w3.org/2000/svg">
<path d="M33.9164 5.9793L17 0.210938L0.0835892 5.9793C0.0835892 5.9793 -1.7961 28.4531 17 37.7891C35.7961 28.4531 33.9164 5.9793 33.9164 5.9793Z" fill="url(#paint0_linear_1_847)"/>
<path d="M17 34.6988C10.6492 31.1516 6.33828 25.4801 4.17538 17.8238C3.28066 14.6089 2.80794 11.2912 2.76913 7.9543L17 3.10156L31.2312 7.95391C31.1925 11.2908 30.7198 14.6085 29.825 17.8234C27.6617 25.4805 23.3508 31.1516 17 34.6988Z" fill="white"/>
<path d="M17 23.6513C20.7394 23.6513 23.7707 20.6199 23.7707 16.8806C23.7707 13.1412 20.7394 10.1099 17 10.1099C13.2607 10.1099 10.2293 13.1412 10.2293 16.8806C10.2293 20.6199 13.2607 23.6513 17 23.6513Z" fill="#68613D"/>
<path d="M16.0672 20.1004C15.9743 20.1004 15.8824 20.0814 15.7971 20.0447C15.7118 20.0079 15.6349 19.9542 15.5711 19.8867L13.5496 17.75C13.4825 17.686 13.4291 17.609 13.3926 17.5236C13.3562 17.4383 13.3376 17.3464 13.3378 17.2537C13.338 17.1609 13.3571 17.0691 13.394 16.984C13.4308 16.8988 13.4846 16.8221 13.552 16.7584C13.6194 16.6947 13.6992 16.6454 13.7863 16.6135C13.8734 16.5815 13.9661 16.5677 14.0587 16.5728C14.1513 16.5778 14.242 16.6017 14.3251 16.6429C14.4082 16.6841 14.4821 16.7418 14.5422 16.8125L16.0125 18.3652L19.4109 13.9293C19.4647 13.8559 19.5326 13.794 19.6107 13.7472C19.6887 13.7004 19.7754 13.6697 19.8654 13.6568C19.9555 13.6439 20.0473 13.6491 20.1353 13.6722C20.2234 13.6952 20.3059 13.7356 20.3781 13.791C20.4504 13.8464 20.5108 13.9156 20.5559 13.9946C20.601 14.0737 20.6299 14.1609 20.6408 14.2513C20.6518 14.3416 20.6446 14.4332 20.6197 14.5207C20.5947 14.6083 20.5526 14.6899 20.4957 14.7609L16.6094 19.8324C16.5491 19.9111 16.4725 19.9757 16.3848 20.0218C16.2971 20.0679 16.2005 20.0943 16.1015 20.0992C16.091 20.1 16.0793 20.1004 16.0672 20.1004Z" fill="#F6EFEA"/>
<defs>
<linearGradient id="paint0_linear_1_847" x1="-51.5996" y1="0.210938" x2="23.5806" y2="38.1162" gradientUnits="userSpaceOnUse">
<stop stop-color="#CAFF70"/>
<stop offset="1" stop-color="#2FC423"/>
</linearGradient>
</defs>
</svg>
